<?xml version="1.0" encoding="UTF-8" standalone="no"?>
<!-- Created with Inkscape (http://www.inkscape.org/) -->

<svg
   width="600"
   height="400"
   viewBox="0 0 158.75 105.83333"
   version="1.1"
   id="svg5"
   inkscape:version="1.2.2 (b0a8486541, 2022-12-01)"
   sodipodi:docname="NXUSUI.svg"
   xmlns:inkscape="http://www.inkscape.org/namespaces/inkscape"
   xmlns:sodipodi="http://sodipodi.sourceforge.net/DTD/sodipodi-0.dtd"
   xmlns="http://www.w3.org/2000/svg"
   xmlns:svg="http://www.w3.org/2000/svg">
  <sodipodi:namedview
     id="namedview7"
     pagecolor="#505050"
     bordercolor="#eeeeee"
     borderopacity="1"
     inkscape:showpageshadow="0"
     inkscape:pageopacity="0"
     inkscape:pagecheckerboard="0"
     inkscape:deskcolor="#505050"
     inkscape:document-units="mm"
     showgrid="false"
     inkscape:zoom="0.67521728"
     inkscape:cx="502.06061"
     inkscape:cy="155.5055"
     inkscape:window-width="1024"
     inkscape:window-height="699"
     inkscape:window-x="0"
     inkscape:window-y="0"
     inkscape:window-maximized="1"
     inkscape:current-layer="layer1" />
  <defs
     id="defs2">
    <rect
       x="183.95699"
       y="149.65669"
       width="301.74315"
       height="161.23282"
       id="rect2630" />
  </defs>
  <g
     inkscape:label="Strat 1"
     inkscape:groupmode="layer"
     id="layer1">
    <rect
       style="fill:#333333;stroke-width:0.565851"
       id="rect163"
       width="165.9267"
       height="110.52749"
       x="-3.8434906"
       y="-2.9281566" />
    <path
       sodipodi:type="star"
       style="fill:none;stroke:#9e9e9e;stroke-width:2.865;stroke-dasharray:none;stroke-opacity:1"
       id="path437"
       inkscape:flatsided="false"
       sodipodi:sides="15"
       sodipodi:cx="-12.690709"
       sodipodi:cy="-12.747343"
       sodipodi:r1="49.434822"
       sodipodi:r2="30.64959"
       sodipodi:arg1="0.81347034"
       sodipodi:arg2="1.0229099"
       inkscape:rounded="0.14"
       inkscape:randomized="0"
       d="M 21.270063,23.175736 C 19.187348,25.144682 5.7207471,11.923086 3.2741775,13.415985 0.8276081,14.908884 6.4262643,32.931508 3.7227671,33.883113 1.0192697,34.834718 -5.9053744,17.278829 -8.7476437,17.647551 c -2.8422693,0.368722 -5.0581033,19.110386 -7.9149243,18.880109 -2.85682,-0.230276 -2.042174,-19.084886 -4.788689,-19.904097 -2.746514,-0.819211 -12.393702,15.400891 -14.909875,14.028549 -2.516173,-1.372342 5.896904,-18.265538 3.721041,-20.131033 -2.175863,-1.8654942 -17.586317,9.028441 -19.326774,6.751325 -1.740457,-2.277117 12.816353,-14.2879128 11.587368,-16.87713024 -1.228984,-2.58921726 -19.738097,1.09489174 -20.401897,-1.69326526 -0.6638,-2.7881572 17.519739,-7.8397772 17.450135,-10.7050185 -0.0696,-2.86524 -18.476982,-7.027974 -17.949348,-9.845074 0.527635,-2.8171 19.193803,-0.03607 20.295615,-2.681911 1.101812,-2.645838 -14.021028,-13.93564 -12.393193,-16.29458 1.627836,-2.358941 17.549084,7.773868 19.631799,5.804922 2.082714,-1.968946 -7.140712,-18.433706 -4.694142,-19.926605 2.446569,-1.492899 12.869968,14.239637 15.573465,13.288032 2.703497,-0.951605 0.974299,-19.744418 3.816568,-20.113139 2.84227,-0.368722 5.965519,18.243243 8.82234,18.47352 2.8568199,0.230277 8.9208444,-17.64114 11.6673591,-16.821929 2.7465148,0.819211 -1.97042318,19.092428 0.5457502,20.46477 2.5161732,1.372341 15.3248957,-12.487549 17.5007577,-10.622054 2.175863,1.865494 -9.5656606,16.640357 -7.825204,18.917473 1.740457,2.277117 19.079132,-5.174747 20.308117,-2.585529 1.228985,2.589217 -15.506909,11.311017 -14.843109,14.099174 0.6638,2.788157 19.534413,3.032816 19.604017,5.898057 0.0696,2.865241 -18.766872,4.0259006 -19.294506,6.8430006 C 16.907393,-4.2877825 34.047045,3.6110943 32.945232,6.2569324 31.84342,8.9027706 14.16336,2.3016013 12.535525,4.660542 10.907689,7.0194826 23.352778,21.20679 21.270063,23.175736 Z"
       inkscape:transform-center-x="-2.0047452"
       inkscape:transform-center-y="0.034661922"
       transform="matrix(-0.39695482,0.44262144,-0.44262144,-0.39695482,-4.4844369,14.508839)" />
    <path
       sodipodi:type="star"
       style="fill:none;stroke:#9e9e9e;stroke-width:2.86499;stroke-dasharray:none;stroke-opacity:1"
       id="path2907"
       inkscape:flatsided="true"
       sodipodi:sides="5"
       sodipodi:cx="-8.1936274"
       sodipodi:cy="66.628136"
       sodipodi:r1="24.908869"
       sodipodi:r2="24.36455"
       sodipodi:arg1="0.96614166"
       sodipodi:arg2="1.5944602"
       inkscape:rounded="-5.81"
       inkscape:randomized="0"
       d="M 5.9665167,87.120624 C 145.93153,-9.5940753 -158.54013,-16.800396 -23.307416,86.42776 111.9253,189.65592 24.691997,-102.14072 -31.694607,58.372488 -88.081211,218.8857 162.47731,45.751779 -7.6042423,41.726241 -177.68579,37.700703 64.401188,222.49469 15.671612,59.493565 -33.057964,-103.50756 -133.9985,183.83532 5.9665167,87.120624 Z"
       inkscape:transform-center-x="0.049370539"
       inkscape:transform-center-y="-0.14614887"
       transform="translate(43.652916,24.106378)" />
    <path
       sodipodi:type="star"
       style="fill:none;stroke:#969696;stroke-width:0.965;stroke-dasharray:none;stroke-opacity:1"
       id="path3969"
       inkscape:flatsided="false"
       sodipodi:sides="15"
       sodipodi:cx="134.45172"
       sodipodi:cy="-10.971776"
       sodipodi:r1="0.26245639"
       sodipodi:r2="26.24564"
       sodipodi:arg1="0.92824001"
       sodipodi:arg2="1.1376795"
       inkscape:rounded="-5.22"
       inkscape:randomized="0"
       d="M 134.609,-10.761662 C 243.21581,-92.056563 22.331406,69.788177 145.46707,12.850394 268.60272,-44.087388 2.2270588,19.376357 134.50994,-10.715858 266.79282,-40.808073 -0.82331568,17.202671 134.82539,15.271204 270.47409,13.339736 1.3147838,-37.027992 134.40081,-10.714304 267.48684,15.599384 -0.58775443,-40.254452 124.1191,13.154363 248.82596,66.563178 23.423095,-88.926985 134.30049,-10.757269 245.17789,67.412446 22.997359,-92.648335 115.19942,6.8658941 207.40148,106.38012 64.729264,-127.34681 134.22632,-10.837325 203.72337,105.67216 65.853944,-130.9196 109.60863,-2.5068702 153.36332,125.90586 118.09108,-145.64434 134.19112,-10.940628 150.29116,123.76308 120.57171,-148.45079 108.31344,-13.343294 96.055181,121.76421 174.2818,-140.65576 134.20098,-11.049317 94.120164,118.55712 177.68945,-142.21062 111.5378,-23.76966 45.386148,94.671298 223.58554,-113.24364 134.2542,-11.144599 44.92286,90.95444 227.331,-113.27805 118.72418,-31.983156 10.117362,49.311742 257.47723,-68.147783 134.34157,-11.209998 11.20591,45.727787 260.91288,-66.655806 128.63,-36.563594 c -132.2828835,30.0922124 141.46669,23.397918 5.81798,25.329388 -135.6487,1.9314707 138.18049,0.828924 5.09446,-25.484767 C 6.4564116,-63.032664 259.26191,42.195775 134.55505,-11.213037 9.8481897,-64.62185 260.45205,45.747289 149.57465,-32.422429 38.697259,-110.59215 226.84631,88.364074 134.64424,-11.150153 42.442182,-110.66438 226.48903,92.092619 156.99197,-24.416872 87.494922,-140.92636 178.45484,117.3563 134.70015,-11.056425 90.945459,-139.46915 176.61192,120.61718 160.51188,-14.086535 144.41184,-148.79025 122.45484,124.15944 134.7131,-10.948061 146.97136,-146.05556 119.44493,126.38881 159.52575,-3.2176284 199.60657,-132.82407 68.529211,107.59716 134.68086,-10.843797 200.83251,-129.28476 64.872749,108.40955 154.20409,6.3105157 243.53543,-95.788521 26.002179,70.533238 134.609,-10.761662 Z"
       inkscape:transform-center-x="-0.0385433"
       inkscape:transform-center-y="-0.24462458"
       transform="translate(9.4380542,34.967947)" />
    <text
       xml:space="preserve"
       transform="matrix(0.26458333,0,0,0.26458333,1.1969767,-3.4837841)"
       id="text2628"
       style="font-size:85.3333px;white-space:pre;shape-inside:url(#rect2630);fill:none;stroke:#ffffff;stroke-width:10.8283;stroke-dasharray:none;stroke-opacity:1"><tspan
         x="183.95703"
         y="227.2989"
         id="tspan4300">NXUS</tspan></text>
    <rect
       style="fill:none;stroke:#ffffff;stroke-width:2.81732;stroke-dasharray:none;stroke-opacity:1"
       id="rect2736"
       width="66.404869"
       height="1.9946686"
       x="46.619991"
       y="61.632713" />
    <rect
       style="fill:none;stroke:#ffffff;stroke-width:2.44484;stroke-dasharray:none;stroke-opacity:1"
       id="rect2740"
       width="1.9309167"
       height="26.268423"
       x="125.52065"
       y="-4.2423506"
       transform="rotate(19.387972)" />
  </g>
</svg>
